<?xml version="1.0" encoding="UTF-8" standalone="no"?>
<!-- Created with Inkscape (http://www.inkscape.org/) -->

<svg
   xmlns:dc="http://purl.org/dc/elements/1.1/"
   xmlns:cc="http://creativecommons.org/ns#"
   xmlns:rdf="http://www.w3.org/1999/02/22-rdf-syntax-ns#"
   xmlns:svg="http://www.w3.org/2000/svg"
   xmlns="http://www.w3.org/2000/svg"
   xmlns:sodipodi="http://sodipodi.sourceforge.net/DTD/sodipodi-0.dtd"
   xmlns:inkscape="http://www.inkscape.org/namespaces/inkscape"
   width="64"
   height="64"
   id="svg2"
   version="1.1"
   inkscape:version="0.48.3.1 r9886"
   inkscape:export-xdpi="90"
   inkscape:export-ydpi="90"
   sodipodi:docname="character.svg">
  <defs
     id="defs4" />
  <sodipodi:namedview
     id="base"
     pagecolor="#ffffff"
     bordercolor="#666666"
     borderopacity="1.0"
     inkscape:pageopacity="0.0"
     inkscape:pageshadow="2"
     inkscape:zoom="4"
     inkscape:cx="1.024047"
     inkscape:cy="28.6577"
     inkscape:document-units="px"
     inkscape:current-layer="layer2"
     showgrid="true"
     inkscape:window-width="1600"
     inkscape:window-height="850"
     inkscape:window-x="0"
     inkscape:window-y="0"
     inkscape:window-maximized="1"
     showguides="true"
     inkscape:snap-global="true">
    <inkscape:grid
       type="xygrid"
       id="grid3772"
       empspacing="5"
       visible="true"
       enabled="false"
       snapvisiblegridlinesonly="true"
       dotted="false" />
    <inkscape:grid
       type="axonomgrid"
       id="grid3774"
       units="px"
       empspacing="16"
       visible="true"
       enabled="true"
       snapvisiblegridlinesonly="true"
       gridanglex="45"
       gridanglez="45"
       spacingy="1px" />
  </sodipodi:namedview>
  <metadata
     id="metadata7">
    <rdf:RDF>
      <cc:Work
         rdf:about="">
        <dc:format>image/svg+xml</dc:format>
        <dc:type
           rdf:resource="http://purl.org/dc/dcmitype/StillImage" />
        <dc:title />
      </cc:Work>
    </rdf:RDF>
  </metadata>
  <g
     inkscape:groupmode="layer"
     id="layer2"
     inkscape:label="Draw"
     style="display:inline">
    <path
       sodipodi:nodetypes="ccccc"
       inkscape:connector-curvature="0"
       id="rect3854-2"
       d="m 0,-160 31.999997,-32 32.000004,32 -31.999997,32 z"
       style="opacity:0.5;fill:#ff0000;fill-opacity:1;stroke:none;display:none" />
    <path
       sodipodi:nodetypes="ccccc"
       inkscape:connector-curvature="0"
       id="rect3854-1"
       d="M 0,-96.000003 31.999997,-128 64.000001,-95.999996 32.000004,-63.999999 z"
       style="opacity:0.5;fill:#ff0000;fill-opacity:1;stroke:none;display:none" />
    <path
       sodipodi:nodetypes="ccccc"
       inkscape:connector-curvature="0"
       id="rect3854-27"
       d="M 128,31.999997 160,-8.6540467e-8 192,32.000004 160,64.000001 z"
       style="opacity:0.5;fill:#ff0000;fill-opacity:1;stroke:none;display:none" />
    <path
       sodipodi:nodetypes="ccccc"
       inkscape:connector-curvature="0"
       id="rect3854-26"
       d="m 128,-224 32,-32 32,32 -32,32 z"
       style="opacity:0.5;fill:#ff0000;fill-opacity:1;stroke:none;display:none" />
    <path
       sodipodi:nodetypes="ccccc"
       inkscape:connector-curvature="0"
       id="rect3854-3"
       d="M 256,-96.000003 288,-128 l 32,32.000004 -32,31.999997 z"
       style="opacity:0.5;fill:#ff0000;fill-opacity:1;stroke:none;display:none" />
    <path
       sodipodi:nodetypes="ccccc"
       inkscape:connector-curvature="0"
       id="rect3854-24"
       d="M 128,-96.000003 160,-128 l 32,32.000004 -32,31.999997 z"
       style="opacity:0.5;fill:#ff0000;fill-opacity:1;stroke:none;display:none" />
    <path
       sodipodi:nodetypes="ccccc"
       inkscape:connector-curvature="0"
       id="rect3854-6"
       d="M 64,-224 95.999997,-256 128,-224 96.000004,-192 z"
       style="opacity:0.5;fill:#ff0000;fill-opacity:1;stroke:none;display:none" />
    <path
       sodipodi:nodetypes="ccccc"
       inkscape:connector-curvature="0"
       id="rect3854-7"
       d="m 128,-288 32,-32 32,32 -32,32 z"
       style="opacity:0.5;fill:#ff0000;fill-opacity:1;stroke:none;display:none" />
    <path
       sodipodi:nodetypes="ccccc"
       inkscape:connector-curvature="0"
       id="rect3854-62"
       d="m 0,-160 31.999997,-32 32.000004,32 -31.999997,32 z"
       style="opacity:0.5;fill:#ff0000;fill-opacity:1;stroke:none;display:none" />
    <path
       sodipodi:nodetypes="ccccc"
       inkscape:connector-curvature="0"
       id="rect3854-244"
       d="M 64,-160 95.999997,-192 128,-160 96.000004,-128 z"
       style="opacity:0.5;fill:#ff0000;fill-opacity:1;stroke:none;display:none" />
    <path
       sodipodi:nodetypes="ccccc"
       inkscape:connector-curvature="0"
       id="rect3854-0"
       d="M 192,-32.000003 224,-64 256,-31.999996 224,1.2260221e-6 z"
       style="opacity:0.5;fill:#ff0000;fill-opacity:1;stroke:none;display:none" />
    <path
       sodipodi:nodetypes="ccccc"
       inkscape:connector-curvature="0"
       id="rect3854-13"
       d="m 256,-160 32,-32 32,32 -32,32 z"
       style="opacity:0.5;fill:#ff0000;fill-opacity:1;stroke:none;display:none" />
    <path
       sodipodi:nodetypes="ccccc"
       inkscape:connector-curvature="0"
       id="rect3854-5"
       d="M 320,-96.000003 352,-128 l 32,32.000004 -32,31.999997 z"
       style="opacity:0.5;fill:#ff0000;fill-opacity:1;stroke:none;display:none" />
    <path
       sodipodi:nodetypes="ccccc"
       inkscape:connector-curvature="0"
       id="rect3854-55"
       d="m 192,-224 32,-32 32,32 -32,32 z"
       style="opacity:0.5;fill:#ff0000;fill-opacity:1;stroke:none;display:none" />
    <path
       sodipodi:nodetypes="ccccc"
       inkscape:connector-curvature="0"
       id="rect3854-57"
       d="M 64,-32.000003 95.999997,-64 128,-31.999996 96.000004,1.2260221e-6 z"
       style="opacity:0.5;fill:#ff0000;fill-opacity:1;stroke:none;display:none" />
    <path
       sodipodi:nodetypes="ccccc"
       inkscape:connector-curvature="0"
       id="rect3854-4"
       d="m 192,-160 32,-32 32,32 -32,32 z"
       style="opacity:0.5;fill:#ff0000;fill-opacity:1;stroke:none;display:none" />
    <g
       id="g4055">
      <path
         style="fill:#67c5cd;fill-opacity:1;stroke:none"
         d="M 14.5,15.5 10,11 13.5,7.5 18,12 z"
         id="path4048"
         inkscape:connector-curvature="0"
         sodipodi:nodetypes="ccccc" />
      <path
         style="fill:#2e838a;fill-opacity:1;stroke:none"
         d="m 15.5,23.5 -4,-4 0,6 4,4 z"
         id="path4050"
         inkscape:connector-curvature="0"
         sodipodi:nodetypes="ccccc" />
      <path
         inkscape:connector-curvature="0"
         id="path4052"
         d="m 22,17 -2.5,2.5 0,7 L 22,24 z"
         style="fill:#174245;fill-opacity:1;stroke:none"
         sodipodi:nodetypes="ccccc" />
      <path
         sodipodi:nodetypes="ccccc"
         inkscape:connector-curvature="0"
         id="path4054"
         d="m 19.5,19.5 -2,2 0,3 2,2 z"
         style="fill:#141414;fill-opacity:1;stroke:none" />
      <path
         sodipodi:nodetypes="ccccc"
         style="fill:#184549;fill-opacity:1;stroke:none"
         d="M 23.5,7.5 22,9 l 0,5 1.5,-1.5 z"
         id="path4056"
         inkscape:connector-curvature="0" />
      <path
         style="fill:#256b71;fill-opacity:1;stroke:none"
         d="M 20.5,10.5 16,6 19,3 23.5,7.5 z"
         id="path4058"
         inkscape:connector-curvature="0"
         sodipodi:nodetypes="ccccc" />
      <path
         sodipodi:nodetypes="ccccc"
         inkscape:connector-curvature="0"
         id="path3847"
         d="M 16.5,13.5 12,9 16,5 20.5,9.5 z"
         style="fill:#38a3ac;fill-opacity:1;stroke:none" />
      <path
         sodipodi:nodetypes="ccccc"
         style="fill:#8b6e50;fill-opacity:1;stroke:none"
         d="m 19.5,3.5 -4,4 0,5 4,-4 z"
         id="path4062"
         inkscape:connector-curvature="0" />
      <path
         style="fill:#bd956c;fill-opacity:1;stroke:none"
         d="M 15.5,7.5 12,4 l 0,5 3.5,3.5 z"
         id="path4064"
         inkscape:connector-curvature="0"
         sodipodi:nodetypes="ccccc" />
      <path
         inkscape:connector-curvature="0"
         id="path4066"
         d="m 22.5,7.5 -8,8 0,9 8,-8 z"
         style="fill:#215c61;fill-opacity:1;stroke:none"
         sodipodi:nodetypes="ccccc" />
      <path
         sodipodi:nodetypes="ccccc"
         inkscape:connector-curvature="0"
         id="path4068"
         d="M 14.5,15.5 10,11 l 0,9 4.5,4.5 z"
         style="fill:#359ba2;fill-opacity:1;stroke:none" />
      <path
         inkscape:connector-curvature="0"
         id="path4070"
         d="M 13.5,15.5 12,17 l 0,5 1.5,-1.5 z"
         style="fill:#256b73;fill-opacity:1;stroke:none"
         sodipodi:nodetypes="ccccc" />
      <path
         sodipodi:nodetypes="ccccc"
         inkscape:connector-curvature="0"
         id="path4072"
         d="m 12,17 -3.5,-3.5 0,5 3.5,3.5 z"
         style="fill:#359ba2;fill-opacity:1;stroke:none" />
      <path
         sodipodi:nodetypes="ccccc"
         inkscape:connector-curvature="0"
         id="path4074"
         d="M 12,17 8.5,13.5 10,12 l 3.5,3.5 z"
         style="fill:#67c5cd;fill-opacity:1;stroke:none" />
      <path
         sodipodi:nodetypes="ccccc"
         style="fill:#174245;fill-opacity:1;stroke:none"
         d="m 18,21 -2.5,2.5 0,6 L 18,27 z"
         id="path4076"
         inkscape:connector-curvature="0" />
      <path
         style="fill:#2a2a2a;fill-opacity:1;stroke:none"
         d="M 15.5,7.5 12,4 16,0 19.5,3.5 z"
         id="path4080"
         inkscape:connector-curvature="0"
         sodipodi:nodetypes="ccccc" />
      <path
         style="fill:#454545;fill-opacity:1;stroke:none"
         d="m 12,4 3.5,3.5 0,1 L 14,7 12.5,7.5 12,9 z"
         id="path4120"
         inkscape:connector-curvature="0"
         sodipodi:nodetypes="ccccccc" />
      <path
         sodipodi:nodetypes="ccccc"
         inkscape:connector-curvature="0"
         id="path3075"
         d="m 16,8 0,1 1,-1 0,-1 z"
         style="fill:#ffffff;fill-opacity:1;stroke:none" />
      <path
         style="fill:#ffffff;fill-opacity:1;stroke:none"
         d="m 18,6 0,1 1,-1 0,-1 z"
         id="path3845"
         inkscape:connector-curvature="0"
         sodipodi:nodetypes="ccccc" />
    </g>
    <g
       id="g4076">
      <path
         sodipodi:nodetypes="ccccc"
         inkscape:connector-curvature="0"
         id="path3849"
         d="M 46.5,15.5 42,11 45.5,7.5 50,12 z"
         style="fill:#67c5cd;fill-opacity:1;stroke:none" />
      <path
         sodipodi:nodetypes="ccccc"
         inkscape:connector-curvature="0"
         id="path3851"
         d="m 47.5,23.5 -4,-4 0,6 4,4 z"
         style="fill:#2e838a;fill-opacity:1;stroke:none" />
      <path
         sodipodi:nodetypes="ccccc"
         style="fill:#174245;fill-opacity:1;stroke:none"
         d="m 54,17 -2.5,2.5 0,7 L 54,24 z"
         id="path3853"
         inkscape:connector-curvature="0" />
      <path
         style="fill:#141414;fill-opacity:1;stroke:none"
         d="m 51.5,19.5 -2,2 0,3 2,2 z"
         id="path3855"
         inkscape:connector-curvature="0"
         sodipodi:nodetypes="ccccc" />
      <path
         inkscape:connector-curvature="0"
         id="path3857"
         d="M 55.5,7.5 54,9 l 0,5 1.5,-1.5 z"
         style="fill:#184549;fill-opacity:1;stroke:none"
         sodipodi:nodetypes="ccccc" />
      <path
         sodipodi:nodetypes="ccccc"
         inkscape:connector-curvature="0"
         id="path3859"
         d="M 52.5,10.5 48,6 51,3 55.5,7.5 z"
         style="fill:#256b71;fill-opacity:1;stroke:none" />
      <path
         style="fill:#38a3ac;fill-opacity:1;stroke:none"
         d="M 48.5,13.5 44,9 48,5 52.5,9.5 z"
         id="path3861"
         inkscape:connector-curvature="0"
         sodipodi:nodetypes="ccccc" />
      <path
         inkscape:connector-curvature="0"
         id="path3863"
         d="m 51.5,3.5 -4,4 0,5 4,-4 z"
         style="fill:#8b6e50;fill-opacity:1;stroke:none"
         sodipodi:nodetypes="ccccc" />
      <path
         sodipodi:nodetypes="ccccc"
         inkscape:connector-curvature="0"
         id="path3865"
         d="M 47.5,7.5 44,4 l 0,5 3.5,3.5 z"
         style="fill:#bd956c;fill-opacity:1;stroke:none" />
      <path
         sodipodi:nodetypes="ccccc"
         style="fill:#215c61;fill-opacity:1;stroke:none"
         d="m 54.5,7.5 -8,8 0,9 8,-8 z"
         id="path3867"
         inkscape:connector-curvature="0" />
      <path
         style="fill:#359ba2;fill-opacity:1;stroke:none"
         d="M 46.5,15.5 42,11 l 0,9 4.5,4.5 z"
         id="path3869"
         inkscape:connector-curvature="0"
         sodipodi:nodetypes="ccccc" />
      <path
         sodipodi:nodetypes="ccccc"
         style="fill:#256b73;fill-opacity:1;stroke:none"
         d="M 45.5,15.5 44,17 l 0,5 1.5,-1.5 z"
         id="path3871"
         inkscape:connector-curvature="0" />
      <path
         style="fill:#359ba2;fill-opacity:1;stroke:none"
         d="m 44,17 -3.5,-3.5 0,5 3.5,3.5 z"
         id="path3873"
         inkscape:connector-curvature="0"
         sodipodi:nodetypes="ccccc" />
      <path
         style="fill:#67c5cd;fill-opacity:1;stroke:none"
         d="M 44,17 40.5,13.5 42,12 l 3.5,3.5 z"
         id="path3875"
         inkscape:connector-curvature="0"
         sodipodi:nodetypes="ccccc" />
      <path
         inkscape:connector-curvature="0"
         id="path3877"
         d="m 50,21 -2.5,2.5 0,6 L 50,27 z"
         style="fill:#174245;fill-opacity:1;stroke:none"
         sodipodi:nodetypes="ccccc" />
      <path
         sodipodi:nodetypes="ccccc"
         inkscape:connector-curvature="0"
         id="path3879"
         d="M 47.5,7.5 44,4 48,0 51.5,3.5 z"
         style="fill:#2a2a2a;fill-opacity:1;stroke:none" />
      <path
         sodipodi:nodetypes="ccccccc"
         inkscape:connector-curvature="0"
         id="path3881"
         d="M 47.5,7.5 44,4 l 0,1 1.5,2.5 0.5,2.5 1.5,2.5 z"
         style="fill:#454545;fill-opacity:1;stroke:none" />
      <path
         style="fill:#454545;fill-opacity:1;stroke:none;display:inline"
         d="m 47.5,7.5 4,-4 0,5 L 51,8 l -3,3 -0.5,1.5 z"
         id="path4152-0"
         inkscape:connector-curvature="0"
         sodipodi:nodetypes="ccccccc" />
    </g>
    <g
       id="g4096">
      <path
         style="fill:#256b71;fill-opacity:1;stroke:none"
         d="M 49.5,47.5 54,43 50.5,39.5 46,44 z"
         id="path3943"
         inkscape:connector-curvature="0"
         sodipodi:nodetypes="ccccc" />
      <path
         style="fill:#141414;fill-opacity:1;stroke:none"
         d="m 48.5,55.5 4,-4 0,6 -4,4 z"
         id="path3945"
         inkscape:connector-curvature="0"
         sodipodi:nodetypes="ccccc" />
      <path
         inkscape:connector-curvature="0"
         id="path3947"
         d="m 42,49 2.5,2.5 0,7 L 42,56 z"
         style="fill:#226267;fill-opacity:1;stroke:none"
         sodipodi:nodetypes="ccccc" />
      <path
         sodipodi:nodetypes="ccccc"
         inkscape:connector-curvature="0"
         id="path3949"
         d="m 44.5,51.5 2,2 0,3 -2,2 z"
         style="fill:#141414;fill-opacity:1;stroke:none" />
      <path
         sodipodi:nodetypes="ccccc"
         style="fill:#39a4ae;fill-opacity:1;stroke:none"
         d="M 40.5,39.5 42,41 42,46 40.5,44.5 z"
         id="path3951"
         inkscape:connector-curvature="0" />
      <path
         style="fill:#67c5cd;fill-opacity:1;stroke:none"
         d="M 46.5,46.5 51,42 45,35 40.5,39.5 z"
         id="path3953"
         inkscape:connector-curvature="0"
         sodipodi:nodetypes="ccccc" />
      <path
         sodipodi:nodetypes="ccccc"
         style="fill:#8b6e50;fill-opacity:1;stroke:none"
         d="m 44.5,35.5 4,4 0,5 -4,-4 z"
         id="path3957"
         inkscape:connector-curvature="0" />
      <path
         style="fill:#bd956c;fill-opacity:1;stroke:none"
         d="M 48.5,39.5 52,36 l 0,5 -3.5,3.5 z"
         id="path3959"
         inkscape:connector-curvature="0"
         sodipodi:nodetypes="ccccc" />
      <path
         inkscape:connector-curvature="0"
         id="path3961"
         d="m 41.5,39.5 8,8 0,9 -8,-8 z"
         style="fill:#3598a0;fill-opacity:1;stroke:none"
         sodipodi:nodetypes="ccccc" />
      <path
         sodipodi:nodetypes="ccccc"
         inkscape:connector-curvature="0"
         id="path3963"
         d="M 49.5,47.5 54,43 l 0,9 -4.5,4.5 z"
         style="fill:#0a0a0a;fill-opacity:1;stroke:none" />
      <path
         inkscape:connector-curvature="0"
         id="path3965"
         d="M 50.5,47.5 52,49 52,54 50.5,52.5 z"
         style="fill:#3598a0;fill-opacity:1;stroke:none"
         sodipodi:nodetypes="ccccc" />
      <path
         sodipodi:nodetypes="ccccc"
         inkscape:connector-curvature="0"
         id="path3967"
         d="m 52,49 3.5,-3.5 0,5 L 52,54 z"
         style="fill:#0a0a0a;fill-opacity:1;stroke:none" />
      <path
         sodipodi:nodetypes="ccccc"
         inkscape:connector-curvature="0"
         id="path3969"
         d="M 52,49 55.5,45.5 54,44 50.5,47.5 z"
         style="fill:#256b71;fill-opacity:1;stroke:none" />
      <path
         sodipodi:nodetypes="ccccc"
         style="fill:#226267;fill-opacity:1;stroke:none"
         d="m 46,53 2.5,2.5 0,6 L 46,59 z"
         id="path3971"
         inkscape:connector-curvature="0" />
      <path
         style="fill:#2a2a2a;fill-opacity:1;stroke:none"
         d="M 48.5,39.5 52,36 48,32 44.5,35.5 z"
         id="path3973"
         inkscape:connector-curvature="0"
         sodipodi:nodetypes="ccccc" />
      <path
         style="fill:#454545;fill-opacity:1;stroke:none"
         d="M 48.5,39.5 52,36 52,37 50.5,39.5 50,42 48.5,44.5 z"
         id="path3975"
         inkscape:connector-curvature="0"
         sodipodi:nodetypes="ccccccc" />
      <path
         sodipodi:nodetypes="ccccccc"
         inkscape:connector-curvature="0"
         id="path3977"
         d="m 48.5,39.5 -4,-4 0,5 0.5,-0.5 3,3 0.5,1.5 z"
         style="fill:#454545;fill-opacity:1;stroke:none;display:inline" />
    </g>
    <g
       id="g4116">
      <path
         sodipodi:nodetypes="ccccc"
         inkscape:connector-curvature="0"
         id="path4017"
         d="M 17.5,47.5 22,43 18.5,39.5 14,44 z"
         style="fill:#256b71;fill-opacity:1;stroke:none" />
      <path
         sodipodi:nodetypes="ccccc"
         inkscape:connector-curvature="0"
         id="path4019"
         d="m 16.5,55.5 4,-4 0,6 -4,4 z"
         style="fill:#141414;fill-opacity:1;stroke:none" />
      <path
         sodipodi:nodetypes="ccccc"
         style="fill:#226267;fill-opacity:1;stroke:none"
         d="m 10,49 2.5,2.5 0,7 L 10,56 z"
         id="path4021"
         inkscape:connector-curvature="0" />
      <path
         style="fill:#141414;fill-opacity:1;stroke:none"
         d="m 12.5,51.5 2,2 0,3 -2,2 z"
         id="path4023"
         inkscape:connector-curvature="0"
         sodipodi:nodetypes="ccccc" />
      <path
         inkscape:connector-curvature="0"
         id="path4025"
         d="M 8.5,39.5 10,41 10,46 8.5,44.5 z"
         style="fill:#39a4ae;fill-opacity:1;stroke:none"
         sodipodi:nodetypes="ccccc" />
      <path
         sodipodi:nodetypes="ccccc"
         inkscape:connector-curvature="0"
         id="path4027"
         d="M 15,46 19.5,41.5 13,35 8.5,39.5 z"
         style="fill:#67c5cd;fill-opacity:1;stroke:none" />
      <path
         inkscape:connector-curvature="0"
         id="path4031"
         d="m 12.5,35.5 4,4 0,5 -4,-4 z"
         style="fill:#bd956c;fill-opacity:1;stroke:none"
         sodipodi:nodetypes="ccccc" />
      <path
         sodipodi:nodetypes="ccccc"
         inkscape:connector-curvature="0"
         id="path4033"
         d="M 16.5,39.5 20,36 l 0,5 -3.5,3.5 z"
         style="fill:#141414;fill-opacity:1;stroke:none" />
      <path
         sodipodi:nodetypes="ccccc"
         style="fill:#3598a0;fill-opacity:1;stroke:none"
         d="m 9.5,39.5 8,8 0,9 -8,-8 z"
         id="path4035"
         inkscape:connector-curvature="0" />
      <path
         style="fill:#0b0b0b;fill-opacity:1;stroke:none"
         d="M 17.5,47.5 22,43 l 0,9 -4.5,4.5 z"
         id="path4037"
         inkscape:connector-curvature="0"
         sodipodi:nodetypes="ccccc" />
      <path
         sodipodi:nodetypes="ccccc"
         style="fill:#2c7f86;fill-opacity:1;stroke:none"
         d="M 18.5,47.5 20,49 20,54 18.5,52.5 z"
         id="path4039"
         inkscape:connector-curvature="0" />
      <path
         style="fill:#0b0b0b;fill-opacity:1;stroke:none"
         d="m 20,49 3.5,-3.5 0,5 L 20,54 z"
         id="path4041"
         inkscape:connector-curvature="0"
         sodipodi:nodetypes="ccccc" />
      <path
         style="fill:#256b71;fill-opacity:1;stroke:none"
         d="M 20,49 23.5,45.5 22,44 18.5,47.5 z"
         id="path4043"
         inkscape:connector-curvature="0"
         sodipodi:nodetypes="ccccc" />
      <path
         inkscape:connector-curvature="0"
         id="path4045"
         d="m 14,53 2.5,2.5 0,6 L 14,59 z"
         style="fill:#226267;fill-opacity:1;stroke:none"
         sodipodi:nodetypes="ccccc" />
      <path
         sodipodi:nodetypes="ccccc"
         inkscape:connector-curvature="0"
         id="path4047"
         d="M 16.5,39.5 20,36 16,32 12.5,35.5 z"
         style="fill:#2a2a2a;fill-opacity:1;stroke:none" />
      <path
         style="fill:#ffffff;fill-opacity:1;stroke:none"
         d="m 16,40 0,1 -1,-1 0,-1 z"
         id="path4051"
         inkscape:connector-curvature="0"
         sodipodi:nodetypes="ccccc" />
      <path
         sodipodi:nodetypes="ccccc"
         inkscape:connector-curvature="0"
         id="path4053"
         d="m 14,38 0,1 -1,-1 0,-1 z"
         style="fill:#ffffff;fill-opacity:1;stroke:none" />
    </g>
  </g>
  <g
     inkscape:groupmode="layer"
     id="layer1"
     inkscape:label="Image"
     style="opacity:0.5;display:none"
     sodipodi:insensitive="true">
    <rect
       style="fill:#0045c6;fill-opacity:1;stroke:#000000;stroke-width:0.2;stroke-miterlimit:4;stroke-opacity:1;stroke-dasharray:none"
       id="rect4477"
       width="32"
       height="32"
       x="0"
       y="32" />
    <rect
       y="32"
       x="32"
       height="32"
       width="32"
       id="rect4479"
       style="fill:#0045c6;fill-opacity:1;stroke:#000000;stroke-width:0.2;stroke-miterlimit:4;stroke-opacity:1;stroke-dasharray:none" />
    <rect
       style="fill:#0045c6;fill-opacity:1;stroke:#000000;stroke-width:0.2;stroke-miterlimit:4;stroke-opacity:1;stroke-dasharray:none"
       id="rect4481"
       width="32"
       height="32"
       x="32"
       y="0" />
    <rect
       y="0"
       x="0"
       height="32"
       width="32"
       id="rect4483"
       style="fill:#0045c6;fill-opacity:1;stroke:#000000;stroke-width:0.2;stroke-miterlimit:4;stroke-opacity:1;stroke-dasharray:none" />
  </g>
</svg>
